<svg width="40" height="40" viewBox="0 0 40 40" fill="none" xmlns="http://www.w3.org/2000/svg">
	<style>
		.cls-1 {
			fill-rule: evenodd;
			clip-rule: evenodd;
			fill: red;
		}
	</style>
	<path class="cls-1" d="M20 10.625C19.3819 10.625 18.7777 10.4417 18.2638 10.0983C17.7499 9.75496 17.3494 9.26691 17.1129 8.69589C16.8764 8.12487 16.8145 7.49654 16.935 6.89034C17.0556 6.28415 17.3533 5.72733 17.7903 5.29029C18.2273 4.85325 18.7842 4.55563 19.3903 4.43505C19.9965 4.31447 20.6249 4.37635 21.1959 4.61288C21.7669 4.8494 22.255 5.24994 22.5983 5.76384C22.9417 6.27775 23.125 6.88193 23.125 7.5C23.125 8.3288 22.7958 9.12366 22.2097 9.70971C21.6237 10.2958 20.8288 10.625 20 10.625ZM20 5.625C19.6292 5.625 19.2667 5.73497 18.9583 5.941C18.65 6.14702 18.4096 6.43986 18.2677 6.78247C18.1258 7.12508 18.0887 7.50208 18.161 7.8658C18.2334 8.22951 18.412 8.5636 18.6742 8.82583C18.9364 9.08805 19.2705 9.26663 19.6342 9.33897C19.9979 9.41132 20.3749 9.37419 20.7175 9.23228C21.0601 9.09036 21.353 8.85004 21.559 8.5417C21.765 8.23335 21.875 7.87084 21.875 7.5C21.875 7.00272 21.6775 6.52581 21.3258 6.17418C20.9742 5.82255 20.4973 5.625 20 5.625Z"/>
	<path class="cls-1" d="M20 23.125C19.3819 23.125 18.7777 22.9417 18.2638 22.5983C17.7499 22.255 17.3494 21.7669 17.1129 21.1959C16.8764 20.6249 16.8145 19.9965 16.935 19.3903C17.0556 18.7842 17.3533 18.2273 17.7903 17.7903C18.2273 17.3533 18.7842 17.0556 19.3903 16.935C19.9965 16.8145 20.6249 16.8764 21.1959 17.1129C21.7669 17.3494 22.255 17.7499 22.5983 18.2638C22.9417 18.7777 23.125 19.3819 23.125 20C23.125 20.8288 22.7958 21.6237 22.2097 22.2097C21.6237 22.7958 20.8288 23.125 20 23.125ZM20 18.125C19.6292 18.125 19.2667 18.235 18.9583 18.441C18.65 18.647 18.4096 18.9399 18.2677 19.2825C18.1258 19.6251 18.0887 20.0021 18.161 20.3658C18.2334 20.7295 18.412 21.0636 18.6742 21.3258C18.9364 21.588 19.2705 21.7666 19.6342 21.839C19.9979 21.9113 20.3749 21.8742 20.7175 21.7323C21.0601 21.5904 21.353 21.35 21.559 21.0417C21.765 20.7334 21.875 20.3708 21.875 20C21.875 19.5027 21.6775 19.0258 21.3258 18.6742C20.9742 18.3225 20.4973 18.125 20 18.125Z"/>
	<path class="cls-1" d="M20 35.625C19.3819 35.625 18.7777 35.4417 18.2638 35.0983C17.7499 34.755 17.3494 34.2669 17.1129 33.6959C16.8764 33.1249 16.8145 32.4965 16.935 31.8903C17.0556 31.2842 17.3533 30.7273 17.7903 30.2903C18.2273 29.8533 18.7842 29.5556 19.3903 29.435C19.9965 29.3145 20.6249 29.3764 21.1959 29.6129C21.7669 29.8494 22.255 30.2499 22.5983 30.7638C22.9417 31.2777 23.125 31.8819 23.125 32.5C23.125 33.3288 22.7958 34.1237 22.2097 34.7097C21.6237 35.2958 20.8288 35.625 20 35.625ZM20 30.625C19.6292 30.625 19.2667 30.735 18.9583 30.941C18.65 31.147 18.4096 31.4399 18.2677 31.7825C18.1258 32.1251 18.0887 32.5021 18.161 32.8658C18.2334 33.2295 18.412 33.5636 18.6742 33.8258C18.9364 34.088 19.2705 34.2666 19.6342 34.339C19.9979 34.4113 20.3749 34.3742 20.7175 34.2323C21.0601 34.0904 21.353 33.85 21.559 33.5417C21.765 33.2334 21.875 32.8708 21.875 32.5C21.875 32.0027 21.6775 31.5258 21.3258 31.1742C20.9742 30.8225 20.4973 30.625 20 30.625Z"/>
</svg>
